<svg id="Layer_1" data-name="Layer 1" xmlns="http://www.w3.org/2000/svg" viewBox="0 0 200 200"><defs><style>.cls-1{fill:#9376b3;}.cls-2{font-size:141.72px;font-family:MyriadPro-Semibold, Myriad Pro;font-weight:600;letter-spacing:-0.09em;}.cls-2,.cls-4{fill:#ae90c3;}.cls-3{letter-spacing:-0.08em;}</style></defs><path class="cls-1" d="M100.18,200c0-4.56,0-9.11-.07-13.66,0-1.82.58-2.28,2.35-2.28q39.36.08,78.72,0c2.94,0,2.95,0,2.95-3V18.88c0-3,0-3-2.95-3H102.85c-2.69,0-2.7,0-2.7-2.63,0-4.42,0-8.85,0-13.27H200V200Z"/><text class="cls-2" transform="translate(25.88 150.3) scale(1.02 1)">A<tspan class="cls-3" x="76.95" y="0">e</tspan></text><path class="cls-4" d="M100.36,200.08c0-4.56,0-9.11.07-13.66,0-1.82-.58-2.28-2.34-2.28q-39.36.08-78.73,0c-2.94,0-2.94,0-2.94-3V19c0-3,0-3,2.94-3H97.7c2.69,0,2.7,0,2.7-2.63q0-6.63,0-13.27H.55v200Z"/></svg>