<svg id="Layer_1" data-name="Layer 1" xmlns="http://www.w3.org/2000/svg" viewBox="0 0 200 200"><defs><style>.cls-1{fill:#4cb37d;}.cls-2{fill:#46b7ea;}.cls-3{fill:#765fa6;}.cls-4{fill:#e95025;}.cls-5{fill:#ee7265;}</style></defs><g id="path0_fill" data-name="path0 fill"><path class="cls-1" d="M90,143.33v23.34a23.34,23.34,0,1,1-23.33-23.34H90m10-10H66.67A33.34,33.34,0,1,0,100,166.67V133.33Z"/></g><g id="path0_fill-2" data-name="path0 fill"><path class="cls-2" d="M133.18,76.67A23.33,23.33,0,1,1,109.84,100V76.67h23.34m0-10H99.84V100a33.34,33.34,0,1,0,33.34-33.33Z"/></g><g id="path3_fill" data-name="path3 fill"><path class="cls-2" d="M133.33,76A23.34,23.34,0,1,1,110,99.33,23.36,23.36,0,0,1,133.33,76m0-10a33.34,33.34,0,1,0,33.34,33.33A33.34,33.34,0,0,0,133.33,66Z"/></g><g id="path1_fill" data-name="path1 fill"><path class="cls-3" d="M90,76.67v46.66H66.67a23.33,23.33,0,1,1,0-46.66H90m10-10H66.67a33.33,33.33,0,1,0,0,66.66H100V66.67Z"/></g><g id="path1_fill-2" data-name="path1 fill"><path class="cls-4" d="M90,10V56.67H66.67a23.34,23.34,0,1,1,0-46.67H90M100,0H66.67a33.34,33.34,0,1,0,0,66.67H100V0Z"/></g><g id="path2_fill" data-name="path2 fill"><path class="cls-5" d="M133.33,10a23.34,23.34,0,1,1,0,46.67H110V10h23.33m0-10H100V66.67h33.33a33.34,33.34,0,1,0,0-66.67Z"/></g></svg>