<svg id="Layer_1" data-name="Layer 1" xmlns="http://www.w3.org/2000/svg" viewBox="0 0 221.61 200"><path d="M107.9,0c1.77.18,3.55.34,5.32.53A65,65,0,0,1,149.15,16a63.9,63.9,0,0,1,21.7,36.3c4.13,19.81.07,38-12.11,54.25A64.87,64.87,0,0,1,128.3,128.8a7,7,0,0,1-2.42.45c-1.93,0-3-1.28-3-3.34,0-5,0-10,0-15.08,0-3.64.16-7.31-1.39-10.72-.7-1.52-1.66-2.92-2.35-4.12,3.8-1,7.89-1.73,11.75-3.12,9.47-3.4,14.89-10.38,16.89-20.16a45.56,45.56,0,0,0,.79-12.49,24.29,24.29,0,0,0-5.8-14.17,2,2,0,0,1-.5-2.19c1.65-5.31,1.11-10.52-.74-15.68-.35-1-1-1-1.84-1a21.31,21.31,0,0,0-9.24,2.55c-2.3,1.15-4.46,2.56-6.73,3.78a2.9,2.9,0,0,1-1.88.31,63.73,63.73,0,0,0-31,0,3.46,3.46,0,0,1-2.13-.32c-3.68-1.77-7.27-3.75-11-5.36-1.55-.67-3.41-.65-5.13-.89a1.4,1.4,0,0,0-1.63,1.12,25.22,25.22,0,0,0-.67,15.85A2,2,0,0,1,70,45.73a26,26,0,0,0-6.09,17.18c0,6.1.76,12,3.51,17.55,3.48,7,9.34,11.12,16.66,13.27,3.11.92,6.32,1.45,9.58,2.18a15.15,15.15,0,0,0-3.75,7.93,1.34,1.34,0,0,1-.76.84c-6.45,2.57-13.55,2-18-5.11-1.82-2.89-4-5.41-7.23-6.79a7.88,7.88,0,0,0-5.53-.4c-1.19.36-1.43,1.11-.67,2.09a5.85,5.85,0,0,0,1.6,1.5c3.9,2.23,6.09,5.87,7.7,9.81,2.37,5.82,6.86,8.35,12.76,8.71,3.15.19,6.33-.14,9.63-.24a8.57,8.57,0,0,1,.07,1q.06,5,.11,10c0,3.48-1.85,4.85-5.2,3.7A66.24,66.24,0,0,1,43.38,87.77,65.62,65.62,0,0,1,40.09,71.9a63.83,63.83,0,0,1,7.19-36C56.92,17.74,71.87,6.3,91.92,1.72c3.65-.84,7.46-1,11.2-1.47.4,0,.79-.17,1.18-.25Z"/><path d="M221.61,182.57c-.29,1.76-.5,3.52-.86,5.26-.72,3.47-1.86,6.77-4.75,9.1-3.31,2.67-7.23,3-11.25,2.66a19.06,19.06,0,0,1-10.33-3.83c-.15.2-.28.3-.29.4-.33,2.88-.47,2.43-3.19,2.45-1.47,0-2.95-.05-4.42,0-1.17.06-1.5-.42-1.5-1.54,0-8.39,0-16.77,0-25.16q0-14,0-27.93c0-1.8,0-1.8,1.73-1.8,2.9,0,5.81,0,8.71,0,1.15,0,1.53.36,1.52,1.51,0,5.71,0,11.43,0,17.14,0,.19,0,.37.06.75.8-.34,1.53-.66,2.26-1a19.09,19.09,0,0,1,11.62-1.18c5.7,1.2,8.51,5.22,9.81,10.55.36,1.51.57,3.05.86,4.57Zm-24.82-3.17v5.25c0,4.08.29,4.44,4.41,5.11a14.57,14.57,0,0,0,3,.2c2.67-.12,4.32-1.37,4.86-3.88a28.89,28.89,0,0,0,.06-12.72,5.24,5.24,0,0,0-5.06-4.48,12.13,12.13,0,0,0-6.15,1.16,1.63,1.63,0,0,0-1.16,1.76C196.83,174.33,196.79,176.86,196.79,179.4Z"/><path d="M31.63,176.34c-2.22,0-4.28-.05-6.34,0-1.28,0-1.83-.37-1.79-1.74.09-2.49.05-5,0-7.47,0-1,.34-1.46,1.45-1.46,5.76,0,11.52,0,17.29,0,1.06,0,1.47.31,1.47,1.41,0,9,0,18.07-.06,27.11a2.23,2.23,0,0,1-.92,1.59,29.59,29.59,0,0,1-14.07,3.89,36.62,36.62,0,0,1-12.95-1.53c-7.66-2.52-12.13-8-13.94-15.62a49.38,49.38,0,0,1,1.15-28.28c2.65-7.51,8-12.17,15.85-13.56a40.64,40.64,0,0,1,20.69,1.42c2.09.72,2.06.78,1.54,3L39.63,151c-.53,2.27-.53,2.24-2.66,1.62a29.91,29.91,0,0,0-14.34-.67c-5,1-7.87,4.49-9,9.26a35.29,35.29,0,0,0,.48,19.33,10.73,10.73,0,0,0,10.79,7.84c1.84,0,3.68-.13,5.51-.31.43,0,1.15-.52,1.16-.81C31.66,183.67,31.63,180.08,31.63,176.34Z"/><path d="M126.72,174.33h-16.5c0,.59-.07,1.12-.07,1.66v20.74c0,1.88,0,1.88-2,1.89-2.85,0-5.71,0-8.57,0-1.09,0-1.43-.38-1.43-1.46q0-26.76,0-53.51c0-1,.28-1.5,1.41-1.48q4.56.07,9.13,0c1.11,0,1.43.4,1.42,1.46,0,6,0,12.07,0,18.11,0,1.19.27,1.59,1.52,1.57,4.52-.08,9,0,13.55,0h1.53v-1.61c0-5.95,0-11.89,0-17.84,0-1.28.42-1.69,1.68-1.66q4.42.11,8.85,0c1.18,0,1.5.43,1.5,1.54q0,26.55,0,53.1c0,1.75-.06,1.81-1.77,1.81-2.86,0-5.72-.05-8.58,0-1.25,0-1.68-.34-1.67-1.64,0-7,0-14,0-21Z"/><path d="M170.87,196.17c-2,.84-4,1.76-6,2.45a21.59,21.59,0,0,1-13.3.22,9.6,9.6,0,0,1-7.11-8.47,61,61,0,0,1-.36-8.12c-.05-6.77,0-13.54,0-20.32,0-1.32.39-1.8,1.73-1.76q4.29.11,8.57,0c1.32,0,1.79.42,1.78,1.74,0,6.92,0,13.83,0,20.74,0,1.11,0,2.21.09,3.32.19,2.5,1.44,3.78,3.9,4a10.82,10.82,0,0,0,6.6-1.58,2.25,2.25,0,0,0,.74-1.7c.05-8.11,0-16.22,0-24.33,0-2.15,0-2.15,2.15-2.15,2.72,0,5.44,0,8.16,0,1.11,0,1.55.35,1.54,1.51q0,17.7,0,35.39c0,1.24-.42,1.62-1.61,1.56a29.5,29.5,0,0,0-4.7,0c-1.48.15-2-.52-2.07-1.82C171,196.62,170.91,196.41,170.87,196.17Z"/><path d="M84.1,160.17c2.52,0,4.86.05,7.2,0,1.16,0,1.57.41,1.55,1.52q-.06,3.53,0,7.05c0,1.07-.39,1.46-1.47,1.43-2.35-.07-4.69,0-7.19,0,0,.58-.07,1.06-.07,1.55V185c0,3.27,1.19,4.62,4.44,4.92a17.1,17.1,0,0,0,3-.11c1-.07,1.44.2,1.4,1.29-.07,2.12,0,4.24,0,6.36a1.2,1.2,0,0,1-1,1.38,21,21,0,0,1-12.62-.21c-4.37-1.54-6.55-4.94-6.8-9.34-.33-5.69-.24-11.41-.32-17.12,0-.59,0-1.19,0-2-1.63,0-3.18-.07-4.72,0-1.21.07-1.68-.38-1.64-1.57,0-1.75,0-3.5,0-5.26a1.33,1.33,0,0,1,1.19-1.55c1.39-.28,2.75-.74,4.14-1,.82-.16,1-.54,1-1.31,0-2.95,0-5.9,0-8.85,0-1,.28-1.5,1.39-1.49,3.09,0,6.18,0,9.27,0,1,0,1.27.36,1.26,1.31C84.07,153.6,84.1,156.78,84.1,160.17Z"/><path d="M61.81,179.29q0,8.72,0,17.42c0,1.78-.13,1.9-1.87,1.9-2.77,0-5.54,0-8.3,0-1.29,0-1.84-.51-1.84-1.8q0-17.56,0-35.13c0-1.12.43-1.56,1.57-1.54,2.9.06,5.81.09,8.71,0,1.35,0,1.76.4,1.75,1.72C61.77,167.67,61.81,173.48,61.81,179.29Z"/><path d="M62.56,150.14A6.55,6.55,0,0,1,56,156.86a6.68,6.68,0,1,1-.11-13.36A6.58,6.58,0,0,1,62.56,150.14Z"/></svg>