<svg id="Layer_1" data-name="Layer 1" xmlns="http://www.w3.org/2000/svg" viewBox="0 0 200 200"><defs><style>.cls-1{fill:none;stroke:#ee7f20;stroke-miterlimit:10;stroke-width:10px;}.cls-2,.cls-3{fill:#ee7f20;}.cls-3{font-size:27.81px;font-family:MyriadPro-Semibold, Myriad Pro;font-weight:600;letter-spacing:-0.05em;}.cls-4{letter-spacing:-0.11em;}.cls-5{letter-spacing:-0.1em;}</style></defs><path class="cls-1" d="M35.86,46,47.39,176.75,99.13,194l52.06-17.25L162.72,46Z"/><path class="cls-2" d="M80.09,72.18H93.94v90.16c0-.66-33.2-13-33.2-13l-1.1-23.08,13,4.17-.22,7.26,9.24,3.3Z"/><path class="cls-2" d="M101.42,72.18h37.52l-1,19.79H125.31l-.14-4.25h-8.51v17.74s20.67-.15,20.67,0-2.2,44-2.2,44l-33.71,13.48V133.31l13.19-1.9-.15,9.38s9-2.64,9.09-3.23.15-18.76.15-18.76l-22.28,1.61Z"/><text class="cls-3" transform="translate(30.34 19.28) scale(1.06 1)">J<tspan class="cls-4" x="9.51" y="0">A</tspan><tspan class="cls-5" x="24.23" y="0">V</tspan><tspan x="38.02" y="0">ASCRIPT</tspan></text></svg>