<svg xmlns="http://www.w3.org/2000/svg" viewBox="0 0 458.65 283.46"><defs><style>.cls-1{fill:#e59678;}</style></defs><g id="Layer_2" data-name="Layer 2"><g id="Layer_2-2" data-name="Layer 2"><path class="cls-1" d="M359.24,175,458.65.25H416.29a27.93,27.93,0,0,0-24.21,14.12L300.17,174.91a28.58,28.58,0,0,0,0,28.45l38,65.88a27.89,27.89,0,0,0,24,14l42.71.18-45.69-80.19A28.6,28.6,0,0,1,359.24,175Z"/><path class="cls-1" d="M338.05.19a27.9,27.9,0,0,0-24.11,14.17L201,212.81a13.89,13.89,0,0,1-24.2,0l-4.35-7.57a14.15,14.15,0,0,1,7.17-20.22,95.91,95.91,0,0,0,61.28-90.95c-.91-52-43-94-94.6-94h0C146.22.11,0,.07,0,.11L20.68,36A27.91,27.91,0,0,0,44.83,50H146.32c24.52,0,45.24,21,45.24,45.8s-20.72,45.79-45.29,45.79H94.11a8.45,8.45,0,0,0-7.29,12.54l20.41,37.35h0L150.47,269a27.92,27.92,0,0,0,24.64,14.39l11.59-.13,16.41.1a27.9,27.9,0,0,0,24.39-14.16L380.9,0Z"/></g></g></svg>