<svg id="Layer_2" data-name="Layer 2" xmlns="http://www.w3.org/2000/svg" viewBox="0 0 478.98 479.21"><defs><style>.cls-1{fill:#092529;}</style></defs><path class="cls-1" d="M343.42,266.23,423,126.42H389.06a22.3,22.3,0,0,0-19.36,11.29L296.16,266.15a22.86,22.86,0,0,0,0,22.76l30.39,52.7a22.29,22.29,0,0,0,19.22,11.23L380,353l-36.55-64.15A22.9,22.9,0,0,1,343.42,266.23Z"/><path class="cls-1" d="M326.47,126.37a22.32,22.32,0,0,0-19.29,11.34L216.81,296.47a11.12,11.12,0,0,1-19.37,0L194,290.44a11.32,11.32,0,0,1,5.75-16.17,76.74,76.74,0,0,0,49-72.76c-.73-41.59-34.38-75.2-75.68-75.2h0s-117,0-117,0L72.58,155a22.32,22.32,0,0,0,19.31,11.23h81.2c19.62,0,36.19,16.77,36.19,36.63s-16.57,36.64-36.23,36.64H131.32a6.76,6.76,0,0,0-5.83,10l16.33,29.88h0l34.57,62a22.33,22.33,0,0,0,19.71,11.51l9.27-.1,13.13.08A22.35,22.35,0,0,0,238,341.59L360.75,126.22Z"/></svg>