<svg xmlns="http://www.w3.org/2000/svg" viewBox="0 0 36.11 30.87">
  <g id="Layer_2" data-name="Layer 2">
    <g id="Layer_12" data-name="Layer 12">
      <g>
        <rect x="2.38" y="2.51" width="31.24" height="18.93" fill="none" stroke="#092629" stroke-miterlimit="10"/>
        <path d="M18.2,24.73l16,0a1.42,1.42,0,0,0,1.42-1.42V1.92A1.42,1.42,0,0,0,34.19.5H1.92A1.41,1.41,0,0,0,.5,1.92V23.27a1.41,1.41,0,0,0,1.42,1.42l12.75.08h.85" fill="none" stroke="#092629" stroke-miterlimit="10"/>
        <line x1="14.67" y1="28.36" x2="14.67" y2="24.77" fill="none" stroke="#092629" stroke-miterlimit="10"/>
        <line x1="21.52" y1="28.24" x2="21.52" y2="24.78" fill="none" stroke="#092629" stroke-miterlimit="10"/>
        <rect x="11.76" y="28.71" width="12.66" height="1.66" rx="0.83" fill="none" stroke="#092629" stroke-miterlimit="10"/>
        <circle cx="24.87" cy="14.16" r="0.35" fill="#e59678"/>
        <circle cx="24.16" cy="15.92" r="0.35" fill="#e59678"/>
        <circle cx="23.09" cy="17.47" r="0.35" fill="#e59678"/>
        <circle cx="21.61" cy="18.67" r="0.35" fill="#e59678"/>
        <circle cx="19.85" cy="19.42" r="0.35" fill="#e59678"/>
        <circle cx="17.96" cy="19.69" r="0.35" fill="#e59678"/>
        <circle cx="16.05" cy="19.38" r="0.35" fill="#e59678"/>
        <circle cx="14.33" cy="18.67" r="0.35" fill="#e59678"/>
        <circle cx="12.84" cy="17.44" r="0.35" fill="#e59678"/>
        <circle cx="11.74" cy="15.84" r="0.35" fill="#e59678"/>
        <circle cx="11.09" cy="14.07" r="0.35" fill="#e59678"/>
        <line x1="11.68" y1="5.6" x2="17.17" y2="5.6" fill="none" stroke="#2b3838" stroke-linecap="round" stroke-miterlimit="10" stroke-width="0.5"/>
        <line x1="18.77" y1="5.6" x2="24.26" y2="5.6" fill="none" stroke="#2b3838" stroke-linecap="round" stroke-miterlimit="10" stroke-width="0.5"/>
        <circle cx="24.94" cy="5.61" r="0.57" fill="none" stroke="#e59678" stroke-miterlimit="10" stroke-width="0.5"/>
        <circle cx="10.9" cy="5.61" r="0.57" fill="none" stroke="#e59678" stroke-miterlimit="10" stroke-width="0.5"/>
        <line x1="18.42" y1="7.16" x2="20.93" y2="14.05" fill="none" stroke="#2b3838" stroke-linecap="round" stroke-miterlimit="10" stroke-width="0.5"/>
        <line x1="17.49" y1="7.21" x2="14.9" y2="14.08" fill="none" stroke="#2b3838" stroke-linecap="round" stroke-miterlimit="10" stroke-width="0.5"/>
        <line x1="17.98" y1="7.93" x2="17.98" y2="12.6" fill="none" stroke="#2b3838" stroke-linecap="round" stroke-miterlimit="10" stroke-width="0.5"/>
        <path d="M10.79,12.67a6.9,6.9,0,0,1,6.48-7" fill="none" stroke="#2b3838" stroke-miterlimit="10" stroke-width="0.5"/>
        <path d="M18.54,5.63A6.9,6.9,0,0,1,25,12.69" fill="none" stroke="#2b3838" stroke-miterlimit="10" stroke-width="0.5"/>
        <rect x="17.37" y="5.04" width="1.13" height="1.13" fill="none" stroke="#e59678" stroke-miterlimit="10" stroke-width="0.5"/>
        <circle cx="17.96" cy="12.65" r="0.49" fill="#e59678"/>
        <line x1="14.9" y1="14.08" x2="16.64" y2="16.66" fill="none" stroke="#2b3838" stroke-linecap="round" stroke-miterlimit="10" stroke-width="0.5"/>
        <circle cx="20.19" cy="15.33" r="0.27" fill="#e59678"/>
        <line x1="19.72" y1="15.92" x2="19.24" y2="16.66" fill="none" stroke="#2b3838" stroke-linecap="round" stroke-miterlimit="10" stroke-width="0.5"/>
        <line x1="20.99" y1="14.1" x2="20.64" y2="14.74" fill="none" stroke="#2b3838" stroke-linecap="round" stroke-miterlimit="10" stroke-width="0.5"/>
        <rect x="15.45" y="16.71" width="4.86" height="1.02" fill="none" stroke="#2b3838" stroke-miterlimit="10" stroke-width="0.5"/>
      </g>
    </g>
  </g>
</svg>
