<svg xmlns="http://www.w3.org/2000/svg" viewBox="0 0 36.11 30.87">
  <g id="Layer_2" data-name="Layer 2">
    <g id="Layer_13" data-name="Layer 13">
      <g>
        <path d="M18.2,24.73l16,0a1.42,1.42,0,0,0,1.42-1.42V1.92A1.42,1.42,0,0,0,34.19.5H1.92A1.41,1.41,0,0,0,.5,1.92V23.27a1.41,1.41,0,0,0,1.42,1.42l12.75.08h.85" fill="none" stroke="#082629" stroke-miterlimit="10"/>
        <line x1="14.67" y1="28.18" x2="14.67" y2="24.77" fill="none" stroke="#082629" stroke-miterlimit="10"/>
        <line x1="21.52" y1="28.24" x2="21.52" y2="24.78" fill="none" stroke="#082629" stroke-miterlimit="10"/>
        <rect x="11.76" y="28.71" width="12.66" height="1.66" rx="0.83" fill="none" stroke="#082629" stroke-miterlimit="10"/>
        <line x1="15.46" y1="11.22" x2="23.09" y2="11.22" fill="none" stroke="#C1C9C9" stroke-linecap="round" stroke-miterlimit="10"/>
        <line x1="15.46" y1="14.57" x2="23.09" y2="14.57" fill="none" stroke="#C1C9C9" stroke-linecap="round" stroke-miterlimit="10"/>
        <line x1="15.46" y1="17.92" x2="23.09" y2="17.92" fill="none" stroke="#C1C9C9" stroke-linecap="round" stroke-miterlimit="10"/>
        <g>
          <polygon points="33.63 21.44 26.26 15.46 23.89 11.29 28.39 12.31 33.66 16.31 33.63 21.44" fill="none" stroke="#465C5F" stroke-linecap="round" stroke-miterlimit="10" stroke-width="0.5"/>
          <line x1="26.26" y1="15.46" x2="28.41" y2="12.39" fill="none" stroke="#465C5F" stroke-linecap="round" stroke-miterlimit="10" stroke-width="0.5"/>
          <line x1="24.9" y1="12.97" x2="25.68" y2="11.82" fill="none" stroke="#465C5F" stroke-linecap="round" stroke-miterlimit="10" stroke-width="0.5"/>
        </g>
        <rect x="2.38" y="2.51" width="31.24" height="19.33" fill="none" stroke="#082629" stroke-miterlimit="10"/>
        <path d="M6.63,4.43H29.7a.71.71,0,0,1,.71.71V7.71a.7.7,0,0,1-.71.7h-23A.71.71,0,0,1,6,7.72l0-2.56A.71.71,0,0,1,6.63,4.43Z" fill="none" stroke="#E49678" stroke-miterlimit="10" stroke-width="0.5"/>
        <path d="M5.92,11.49V18a.71.71,0,0,0,.71.71h6.24a.71.71,0,0,0,.71-.71V11.46a.71.71,0,0,0-.71-.71l-6.25,0A.7.7,0,0,0,5.92,11.49Z" fill="none" stroke="#E49678" stroke-miterlimit="10" stroke-width="0.5"/>
      </g>
    </g>
  </g>
</svg>
