<svg xmlns="http://www.w3.org/2000/svg" xmlns:xlink="http://www.w3.org/1999/xlink" viewBox="0 0 218.55 65.81">
  <defs>
    <clipPath id="clip-path">
      <path d="M74.12,50.28l-5.73.29a3.83,3.83,0,0,0,2.66-1.32A8.71,8.71,0,0,0,72.91,46l5.74-.15A8.59,8.59,0,0,1,76.79,49,3.85,3.85,0,0,1,74.12,50.28Z" fill="none"/>
    </clipPath>
    <clipPath id="clip-path-2">
      <path d="M78.65,45.8,72.91,46a15.43,15.43,0,0,0,0-9.19A8.48,8.48,0,0,0,71,33.47a3.82,3.82,0,0,0-2.64-1.31l5.73.26a3.87,3.87,0,0,1,2.65,1.27,8.38,8.38,0,0,1,1.88,3.19,14.76,14.76,0,0,1,0,8.92Z" fill="none"/>
    </clipPath>
    <clipPath id="clip-path-3">
      <path d="M69.91,25.82l-5.73-.46c1.55-1.92,3.3-2.76,5.26-2.58l5.74.54A6,6,0,0,0,69.91,25.82Z" fill="none"/>
    </clipPath>
    <clipPath id="clip-path-4">
      <path d="M75,59.34l-5.73.56a5.61,5.61,0,0,1-2.71-.4,7.17,7.17,0,0,1-2.44-1.69l5.74-.49A6.88,6.88,0,0,0,72.28,59,5.71,5.71,0,0,0,75,59.34Z" fill="none"/>
    </clipPath>
    <clipPath id="clip-path-5">
      <path d="M51.69,51.77l-5.74.3a3.79,3.79,0,0,0,2.26-.92,6.65,6.65,0,0,0,1.72-2.31l5.74-.21a6.61,6.61,0,0,1-1.73,2.25A3.85,3.85,0,0,1,51.69,51.77Z" fill="none"/>
    </clipPath>
    <clipPath id="clip-path-6">
      <path d="M55,37.11,49.26,37a13.81,13.81,0,0,0-.92-3.4,7.16,7.16,0,0,0-1.44-2.26,2.76,2.76,0,0,0-1.81-.92l5.74.3a2.74,2.74,0,0,1,1.8.89,7.06,7.06,0,0,1,1.45,2.2A13.65,13.65,0,0,1,55,37.11Z" fill="none"/>
    </clipPath>
    <clipPath id="clip-path-7">
      <path d="M51.39,61.9l-5.74.59a6.39,6.39,0,0,1-5.5-2.32,18.91,18.91,0,0,1-3.89-7.59,40.4,40.4,0,0,1-1.43-11.19,41.83,41.83,0,0,1,1.38-11.2,19.43,19.43,0,0,1,3.73-7.59,6.05,6.05,0,0,1,5.26-2.35l5.74.58a6.13,6.13,0,0,0-5.26,2.28,18.63,18.63,0,0,0-3.74,7.38,40.07,40.07,0,0,0-1.37,10.9A38.37,38.37,0,0,0,42,52.28a18.05,18.05,0,0,0,3.9,7.37A6.43,6.43,0,0,0,51.39,61.9Z" fill="none"/>
    </clipPath>
    <clipPath id="clip-path-8">
      <path d="M212.46,39.57h-5.73a2.31,2.31,0,0,0-1-1.94,4.42,4.42,0,0,0-2.63-.79l5.74.14a4.57,4.57,0,0,1,2.62.75A2.14,2.14,0,0,1,212.46,39.57Z" fill="none"/>
    </clipPath>
    <clipPath id="clip-path-9">
      <path d="M205.29,34.31,199.56,34a9.71,9.71,0,0,1,5.33-1l5.73.33A10.2,10.2,0,0,0,205.29,34.31Z" fill="none"/>
    </clipPath>
    <clipPath id="clip-path-10">
      <path d="M189.36,37.76l-5.74-.1a6.4,6.4,0,0,0-1.82-1,7.07,7.07,0,0,0-2.24-.42l5.74.16a7.24,7.24,0,0,1,2.23.4A6.63,6.63,0,0,1,189.36,37.76Z" fill="none"/>
    </clipPath>
    <clipPath id="clip-path-11">
      <path d="M185.26,45.1l-5.74.23a7.45,7.45,0,0,0,2.28-.42,6.26,6.26,0,0,0,1.82-1l5.74-.18a6.46,6.46,0,0,1-1.83,1A8,8,0,0,1,185.26,45.1Z" fill="none"/>
    </clipPath>
    <clipPath id="clip-path-12">
      <path d="M185,52.21l-5.73.56a6.09,6.09,0,0,0,3.23-1.08,2.92,2.92,0,0,0,1.09-2.4l5.74-.42a2.77,2.77,0,0,1-1.09,2.3A6.41,6.41,0,0,1,185,52.21Z" fill="none"/>
    </clipPath>
    <clipPath id="clip-path-13">
      <path d="M185.15,56.54l-5.74.75a23,23,0,0,1-4.56.19,16.05,16.05,0,0,1-3.93-.73l5.74-.7a16.5,16.5,0,0,0,3.93.68A23.79,23.79,0,0,0,185.15,56.54Z" fill="none"/>
    </clipPath>
    <clipPath id="clip-path-14">
      <path d="M184.21,49.64l-5.74.44a9.66,9.66,0,0,1-5.11-.89,9,9,0,0,1-3.64-3.35,9.56,9.56,0,0,1-1.36-5,9.42,9.42,0,0,1,1.37-5,9,9,0,0,1,3.73-3.35,10.2,10.2,0,0,1,5.24-.93l5.73.36a10.76,10.76,0,0,0-5.24.89,9,9,0,0,0-3.73,12.85,8.59,8.59,0,0,0,3.64,3.21A10,10,0,0,0,184.21,49.64Z" fill="none"/>
    </clipPath>
    <clipPath id="clip-path-15">
      <path d="M168.2,29.22l-5.74-.46a3.44,3.44,0,0,1-2.36-1.22l5.73.51A3.55,3.55,0,0,0,168.2,29.22Z" fill="none"/>
    </clipPath>
    <clipPath id="clip-path-16">
      <path d="M165.83,28.05l-5.73-.51a3.83,3.83,0,0,1-1-2.6,3.11,3.11,0,0,1,1-2.39,2.76,2.76,0,0,1,2.36-.72l5.74.74a2.89,2.89,0,0,0-2.37.68,3,3,0,0,0-1,2.3A3.67,3.67,0,0,0,165.83,28.05Z" fill="none"/>
    </clipPath>
    <clipPath id="clip-path-17">
      <path d="M153.85,47.37l-5.74.28A5.08,5.08,0,0,0,150.5,47a1.51,1.51,0,0,0,.88-1.32,1.23,1.23,0,0,0-.48-1,3.14,3.14,0,0,0-1.54-.53l5.73-.15a3.16,3.16,0,0,1,1.54.5,1.17,1.17,0,0,1,.49,1,1.47,1.47,0,0,1-.88,1.28A5.34,5.34,0,0,1,153.85,47.37Z" fill="none"/>
    </clipPath>
    <clipPath id="clip-path-18">
      <path d="M159,36.81l-5.74-.13a15.1,15.1,0,0,0-3.08-1.62,9.57,9.57,0,0,0-2.93-.6l5.73.22a10,10,0,0,1,2.94.58A16.15,16.15,0,0,1,159,36.81Z" fill="none"/>
    </clipPath>
    <clipPath id="clip-path-19">
      <path d="M151.14,43.46l-5.73.12a7.18,7.18,0,0,1-4.53-2.27,7.14,7.14,0,0,1-1.56-4.8,7.75,7.75,0,0,1,1-4.15,6,6,0,0,1,2.94-2.47,10,10,0,0,1,4.59-.57l5.74.41a10.48,10.48,0,0,0-4.59.55,6,6,0,0,0-2.95,2.37,7.35,7.35,0,0,0-1,4,6.69,6.69,0,0,0,1.55,4.62A7.35,7.35,0,0,0,151.14,43.46Z" fill="none"/>
    </clipPath>
    <clipPath id="clip-path-20">
      <path d="M153.89,52.37l-5.73.48a16.55,16.55,0,0,1-5.23-.33,10.61,10.61,0,0,1-4.17-2l5.73-.38a10.69,10.69,0,0,0,4.17,1.94A17.18,17.18,0,0,0,153.89,52.37Z" fill="none"/>
    </clipPath>
    <clipPath id="clip-path-21">
      <path d="M133.71,47.71,128,48a5.17,5.17,0,0,0,2.25-.61A5.47,5.47,0,0,0,132,45.88l5.73-.2A5.41,5.41,0,0,1,136,47.12,5.3,5.3,0,0,1,133.71,47.71Z" fill="none"/>
    </clipPath>
    <clipPath id="clip-path-22">
      <path d="M137,38.44l-5.74-.07a6.41,6.41,0,0,0-.92-2.16,4.85,4.85,0,0,0-1.45-1.44,3.36,3.36,0,0,0-1.8-.59l5.74.22a3.51,3.51,0,0,1,1.8.57,4.87,4.87,0,0,1,1.44,1.39A6.09,6.09,0,0,1,137,38.44Z" fill="none"/>
    </clipPath>
    <clipPath id="clip-path-23">
      <path d="M133.41,54.12l-5.74.51a8.28,8.28,0,0,1-5.5-1.37,11.3,11.3,0,0,1-3.89-4.82,17.46,17.46,0,0,1-1.43-7.22A18.26,18.26,0,0,1,118.22,34,11.56,11.56,0,0,1,122,29.12a7.71,7.71,0,0,1,5.26-1.43l5.74.45a7.93,7.93,0,0,0-5.26,1.38A11.09,11.09,0,0,0,124,34.2a17,17,0,0,0-1.37,7,16.4,16.4,0,0,0,1.43,7,11.13,11.13,0,0,0,3.88,4.65A8.56,8.56,0,0,0,133.41,54.12Z" fill="none"/>
    </clipPath>
    <clipPath id="clip-path-24">
      <path d="M106.32,47.51l-5.74.23a5.37,5.37,0,0,0,2.88-1,8.5,8.5,0,0,0,2.35-2.42,12.64,12.64,0,0,0,1.58-3.51h5.73a11.62,11.62,0,0,1-1.58,3.39,8.34,8.34,0,0,1-2.35,2.35A5.45,5.45,0,0,1,106.32,47.51Z" fill="none"/>
    </clipPath>
    <clipPath id="clip-path-25">
      <path d="M113.12,40.83h-5.73a15.5,15.5,0,0,0,.56-4.23,16.53,16.53,0,0,0-.56-4.36,13,13,0,0,0-1.58-3.64A9.44,9.44,0,0,0,103.46,26a5.62,5.62,0,0,0-2.88-1.15l5.74.51a5.67,5.67,0,0,1,2.87,1.11,9.25,9.25,0,0,1,2.35,2.5,12.18,12.18,0,0,1,1.58,3.52,15.1,15.1,0,0,1,.56,4.22A14.12,14.12,0,0,1,113.12,40.83Z" fill="none"/>
    </clipPath>
  </defs>
  <g id="Layer_2" data-name="Layer 2">
    <g id="Layer_1-2" data-name="Layer 1">
      <g id="web-design">
        <g id="b" style="isolation: isolate">
          <g style="isolation: isolate">
            <g clip-path="url(#clip-path)">
              <g style="isolation: isolate">
                <path d="M74.12,50.28l-5.73.29a3.31,3.31,0,0,0,.62-.09l5.73-.28a3.19,3.19,0,0,1-.62.08" fill="#915f4b"/>
                <path d="M74.74,50.2,69,50.48a4,4,0,0,0,2-1.23A7.78,7.78,0,0,0,72.52,47l5.74-.18A7.53,7.53,0,0,1,76.79,49a4,4,0,0,1-2.05,1.2" fill="#95614d"/>
                <path d="M78.26,46.78,72.52,47c.14-.32.27-.65.39-1l5.74-.15c-.12.35-.25.67-.39,1" fill="#915f4b"/>
              </g>
            </g>
          </g>
          <g style="isolation: isolate">
            <g clip-path="url(#clip-path-2)">
              <g style="isolation: isolate">
                <path d="M78.65,45.8,72.91,46a10.68,10.68,0,0,0,.38-1.4L79,44.44a11.29,11.29,0,0,1-.38,1.36" fill="#915f4b"/>
                <path d="M79,44.44l-5.74.11a13.25,13.25,0,0,0,.29-2.33l5.74,0A14.52,14.52,0,0,1,79,44.44" fill="#8e5c49"/>
                <path d="M79.32,42.18l-5.74,0q0-.44,0-.87a14.09,14.09,0,0,0-.7-4.59A8.48,8.48,0,0,0,71,33.47a3.82,3.82,0,0,0-2.64-1.31l5.73.26a3.87,3.87,0,0,1,2.65,1.27,8.38,8.38,0,0,1,1.88,3.19,13.58,13.58,0,0,1,.69,4.45c0,.29,0,.57,0,.85" fill="#8a5a47"/>
              </g>
            </g>
          </g>
          <g style="isolation: isolate">
            <g clip-path="url(#clip-path-3)">
              <g style="isolation: isolate">
                <path d="M69.91,25.82l-5.73-.46a6.18,6.18,0,0,1,4.3-2.58l5.73.53a6.29,6.29,0,0,0-4.3,2.51" fill="#95614d"/>
                <path d="M74.21,23.31l-5.73-.53a5.13,5.13,0,0,1,1,0l5.74.54a6.3,6.3,0,0,0-1,0" fill="#915f4b"/>
              </g>
            </g>
          </g>
          <g style="isolation: isolate">
            <g clip-path="url(#clip-path-4)">
              <g style="isolation: isolate">
                <path d="M75,59.34l-5.73.56a5.61,5.61,0,0,1-2.71-.4,7.17,7.17,0,0,1-2.44-1.69l5.74-.49A6.88,6.88,0,0,0,72.28,59a5.71,5.71,0,0,0,2.7.39" fill="#8a5a47"/>
              </g>
            </g>
          </g>
          <polygon points="63.82 10.71 58.09 9.82 64.18 9.01 69.91 9.95 63.82 10.71" fill="#94604c"/>
          <polygon points="63.82 59.94 58.09 60.49 58.09 9.82 63.82 10.71 63.82 59.94" fill="#915e4b"/>
          <path d="M84,32.62a26.73,26.73,0,0,1,1.36,8.7A26.33,26.33,0,0,1,84,50a17.82,17.82,0,0,1-3.72,6.48A8.2,8.2,0,0,1,75,59.34a5.71,5.71,0,0,1-2.7-.39,6.88,6.88,0,0,1-2.44-1.63v2l-6,.58V10.71l6.09-.77V25.82a6,6,0,0,1,5.27-2.5,7.81,7.81,0,0,1,5.14,2.82A18.29,18.29,0,0,1,84,32.62ZM78.65,45.8a14.76,14.76,0,0,0,0-8.92,8.38,8.38,0,0,0-1.88-3.19,3.87,3.87,0,0,0-2.65-1.27,3.94,3.94,0,0,0-2.33.6,6.16,6.16,0,0,0-1.88,2.07v12.6a6.24,6.24,0,0,0,1.88,2,3.9,3.9,0,0,0,2.33.62A3.85,3.85,0,0,0,76.79,49a8.59,8.59,0,0,0,1.86-3.2" fill="#d98e72"/>
        </g>
        <g id="e1" style="isolation: isolate">
          <g style="isolation: isolate">
            <g clip-path="url(#clip-path-5)">
              <g style="isolation: isolate">
                <path d="M51.69,51.77l-5.74.3a3.2,3.2,0,0,0,.7-.11l5.74-.29a5.36,5.36,0,0,1-.7.1" fill="#915f4b"/>
                <path d="M52.39,51.67,46.65,52a3.66,3.66,0,0,0,1.56-.81,6.65,6.65,0,0,0,1.72-2.31l5.74-.21a6.61,6.61,0,0,1-1.73,2.25,3.94,3.94,0,0,1-1.55.79" fill="#95614d"/>
              </g>
            </g>
          </g>
          <g style="isolation: isolate">
            <g clip-path="url(#clip-path-6)">
              <g style="isolation: isolate">
                <path d="M55,37.11,49.26,37a13.81,13.81,0,0,0-.92-3.4,7.16,7.16,0,0,0-1.44-2.26,2.76,2.76,0,0,0-1.81-.92l5.74.3a2.74,2.74,0,0,1,1.8.89,7.06,7.06,0,0,1,1.45,2.2,13.65,13.65,0,0,1,.92,3.3" fill="#8a5a47"/>
              </g>
            </g>
          </g>
          <polygon points="46.69 36.94 40.95 36.82 49.26 37 55 37.11 46.69 36.94" fill="#905e4a"/>
          <g style="isolation: isolate">
            <g clip-path="url(#clip-path-7)">
              <g style="isolation: isolate">
                <path d="M51.39,61.9l-5.74.59a6.39,6.39,0,0,1-5.5-2.32,18.91,18.91,0,0,1-3.89-7.59,40.4,40.4,0,0,1-1.43-11.19c0-.74,0-1.45.05-2.16l5.73.06c0,.68,0,1.38,0,2.1A38.37,38.37,0,0,0,42,52.28a18.05,18.05,0,0,0,3.9,7.37,6.43,6.43,0,0,0,5.5,2.25" fill="#8a5a47"/>
                <path d="M40.61,39.29l-5.73-.06a43.54,43.54,0,0,1,.6-5.81l5.74.22a40.9,40.9,0,0,0-.61,5.65" fill="#8e5c49"/>
                <path d="M41.22,33.64l-5.74-.22c.2-1.12.44-2.19.73-3.23s.53-1.76.83-2.56l5.74.37c-.31.78-.58,1.61-.84,2.49a30.2,30.2,0,0,0-.72,3.15" fill="#915f4b"/>
                <path d="M42.78,28,37,27.63a16.85,16.85,0,0,1,2.9-5,6.42,6.42,0,0,1,4.15-2.36l5.74.58a6.41,6.41,0,0,0-4.15,2.29A16,16,0,0,0,42.78,28" fill="#95614d"/>
                <path d="M49.83,20.82l-5.74-.58a5.89,5.89,0,0,1,1.11,0l5.74.58a5.89,5.89,0,0,0-1.11,0" fill="#915f4b"/>
              </g>
            </g>
          </g>
          <path d="M61,42.45V45.3l-14.16.31a14.43,14.43,0,0,0,1.1,3.31,6,6,0,0,0,1.68,2.17,3.08,3.08,0,0,0,2.1.68,3.85,3.85,0,0,0,2.25-.89,6.61,6.61,0,0,0,1.73-2.25l4,6.68a17.18,17.18,0,0,1-3.85,4.74,8.31,8.31,0,0,1-4.45,1.85,6.43,6.43,0,0,1-5.5-2.25A18.05,18.05,0,0,1,42,52.28a38.37,38.37,0,0,1-1.42-10.89,40.07,40.07,0,0,1,1.37-10.9,18.63,18.63,0,0,1,3.74-7.38,6.13,6.13,0,0,1,5.26-2.28,7.5,7.5,0,0,1,5.19,3.27,21.68,21.68,0,0,1,3.54,7.65A40.57,40.57,0,0,1,61,42.45ZM46.69,36.94l8.31.17a13.65,13.65,0,0,0-.92-3.3,7.06,7.06,0,0,0-1.45-2.2,2.74,2.74,0,0,0-1.8-.89,2.56,2.56,0,0,0-1.85.67,5.67,5.67,0,0,0-1.41,2.1,14.88,14.88,0,0,0-.88,3.45" fill="#d98e72"/>
        </g>
        <g id="w" style="isolation: isolate">
          <polygon points="33.99 5.91 28.26 4.95 34.68 6.03 40.41 6.98 33.99 5.91" fill="#905e4a"/>
          <polygon points="30.8 41.07 25.07 41.06 28.26 4.95 33.99 5.91 30.8 41.07" fill="#95614d"/>
          <polygon points="27.72 63.52 21.98 64.11 17.36 25.39 23.1 25.8 27.72 63.52" fill="#8c5b48"/>
          <polygon points="20.16 3.56 14.43 2.57 20.48 3.62 26.22 4.6 20.16 3.56" fill="#905e4a"/>
          <polygon points="15.58 41.04 9.84 41.03 14.43 2.57 20.16 3.56 15.58 41.04" fill="#96624e"/>
          <polygon points="5.74 1.03 0 0 6.65 1.19 12.39 2.21 5.74 1.03" fill="#905e4a"/>
          <polygon points="11.6 65.2 5.86 65.81 0 0 5.74 1.03 11.6 65.2" fill="#8d5c48"/>
          <polygon points="40.41 6.98 34.55 62.83 27.72 63.52 23.1 25.8 18.44 64.48 11.6 65.2 5.74 1.03 12.39 2.21 15.58 41.04 20.16 3.56 26.22 4.6 30.8 41.07 33.99 5.91 40.41 6.98" fill="#d98e72"/>
        </g>
        <g id="n" style="isolation: isolate">
          <polygon points="212.46 47.51 206.73 47.92 206.73 39.56 212.46 39.57 212.46 47.51" fill="#915e4b"/>
          <g style="isolation: isolate">
            <g clip-path="url(#clip-path-8)">
              <g style="isolation: isolate">
                <path d="M212.46,39.57h-5.73a2.31,2.31,0,0,0-1-1.94,4.42,4.42,0,0,0-2.63-.79l5.74.14a4.57,4.57,0,0,1,2.62.75,2.14,2.14,0,0,1,1,1.84" fill="#8a5a47"/>
              </g>
            </g>
          </g>
          <g style="isolation: isolate">
            <g clip-path="url(#clip-path-9)">
              <g style="isolation: isolate">
                <path d="M205.29,34.31,199.56,34a9,9,0,0,1,4.33-1l5.73.33a9.53,9.53,0,0,0-4.33,1" fill="#95614d"/>
                <path d="M209.62,33.32,203.89,33c.32,0,.66,0,1,0l5.73.33c-.34,0-.67,0-1,0" fill="#915f4b"/>
              </g>
            </g>
          </g>
          <polygon points="199.2 32.96 193.47 32.63 199.56 32.98 205.29 33.31 199.2 32.96" fill="#905e4a"/>
          <polygon points="199.2 48.46 193.47 48.89 193.47 32.63 199.2 32.96 199.2 48.46" fill="#915e4b"/>
          <path d="M210.62,33.34a11.94,11.94,0,0,1,4.12.92,7.28,7.28,0,0,1,2.8,2,4.27,4.27,0,0,1,1,2.78v8l-6.09.43V39.57a2.14,2.14,0,0,0-1-1.84,4.57,4.57,0,0,0-2.62-.75,6.44,6.44,0,0,0-2.05.25,4.37,4.37,0,0,0-1.52.83V48l-6.09.44V33l6.09.35v1A10.2,10.2,0,0,1,210.62,33.34Z" fill="#d98e72"/>
        </g>
        <g id="g" style="isolation: isolate">
          <polygon points="189.43 32.38 183.7 32.03 189.71 32.4 195.44 32.74 189.43 32.38" fill="#905e4a"/>
          <polygon points="189.43 33.27 183.7 32.97 183.7 32.03 189.43 32.38 189.43 33.27" fill="#915e4b"/>
          <polygon points="189.36 48.87 183.62 49.29 183.62 48.29 189.36 47.92 189.36 48.87" fill="#915e4b"/>
          <polygon points="189.36 43.7 183.62 43.87 183.62 37.66 189.36 37.76 189.36 43.7" fill="#915e4b"/>
          <g style="isolation: isolate">
            <g clip-path="url(#clip-path-10)">
              <g style="isolation: isolate">
                <path d="M189.36,37.76l-5.74-.1a6.4,6.4,0,0,0-1.82-1,7.07,7.07,0,0,0-2.24-.42l5.74.16a7.24,7.24,0,0,1,2.23.4,6.63,6.63,0,0,1,1.83,1" fill="#8a5a47"/>
              </g>
            </g>
          </g>
          <g style="isolation: isolate">
            <g clip-path="url(#clip-path-11)">
              <g style="isolation: isolate">
                <path d="M185.26,45.1l-5.74.23q.39,0,.75-.06L186,45q-.36,0-.75.06" fill="#915f4b"/>
                <path d="M186,45l-5.74.23a7.43,7.43,0,0,0,1.53-.36,6.26,6.26,0,0,0,1.82-1l5.74-.18a6.46,6.46,0,0,1-1.83,1A7.86,7.86,0,0,1,186,45" fill="#95614d"/>
              </g>
            </g>
          </g>
          <g style="isolation: isolate">
            <g clip-path="url(#clip-path-12)">
              <g style="isolation: isolate">
                <path d="M185,52.21l-5.73.56q.45,0,.87-.12l5.73-.56q-.41.07-.87.12" fill="#915f4b"/>
                <path d="M185.9,52.09l-5.73.56a5.41,5.41,0,0,0,2.36-1,3.42,3.42,0,0,0,.43-.42l5.73-.5a3.22,3.22,0,0,1-.42.4,5.57,5.57,0,0,1-2.37.92" fill="#95614d"/>
                <path d="M188.69,50.77l-5.73.5a2.65,2.65,0,0,0,.43-.72l5.74-.48a2.43,2.43,0,0,1-.44.7" fill="#915f4b"/>
                <path d="M189.13,50.07l-5.74.48a3.16,3.16,0,0,0,.22-.88l5.73-.44a2.73,2.73,0,0,1-.21.84" fill="#8e5c49"/>
                <path d="M189.34,49.23l-5.73.44c0-.13,0-.25,0-.38l5.74-.42c0,.13,0,.24,0,.36" fill="#8a5a47"/>
              </g>
            </g>
          </g>
          <polygon points="176.66 56.05 170.92 56.75 172.95 51.96 178.68 51.45 176.66 56.05" fill="#98634f"/>
          <g style="isolation: isolate">
            <g clip-path="url(#clip-path-13)">
              <g style="isolation: isolate">
                <path d="M185.15,56.54l-5.74.75a23,23,0,0,1-4.56.19,16.05,16.05,0,0,1-3.93-.73l5.74-.7a16.5,16.5,0,0,0,3.93.68,23.79,23.79,0,0,0,4.56-.19" fill="#8a5a47"/>
              </g>
            </g>
          </g>
          <path d="M189.43,32.38l6,.36V48.49a6.37,6.37,0,0,1-2.65,5.28,15.32,15.32,0,0,1-7.64,2.77,23.79,23.79,0,0,1-4.56.19,16.5,16.5,0,0,1-3.93-.68l2-4.6a16.58,16.58,0,0,0,3.2.74,15.08,15.08,0,0,0,3.15,0,6.41,6.41,0,0,0,3.24-1,2.77,2.77,0,0,0,1.09-2.3v-.95a10.89,10.89,0,0,1-5.15,1.72,10,10,0,0,1-5.11-.84,8.59,8.59,0,0,1-3.64-3.21,8.84,8.84,0,0,1,3.73-12.85,10.76,10.76,0,0,1,5.24-.89,12.37,12.37,0,0,1,2.64.46,11.44,11.44,0,0,1,2.36,1Zm-.07,11.31V37.76a6.63,6.63,0,0,0-1.83-1,7.24,7.24,0,0,0-2.23-.4,5.74,5.74,0,0,0-2.65.51,4.75,4.75,0,0,0-1.88,1.56,3.9,3.9,0,0,0-.69,2.27,4.05,4.05,0,0,0,.68,2.32,4.29,4.29,0,0,0,1.85,1.56,5.75,5.75,0,0,0,2.65.48,8,8,0,0,0,2.27-.41,6.46,6.46,0,0,0,1.83-1" fill="#d98e72"/>
          <g style="isolation: isolate">
            <g clip-path="url(#clip-path-14)">
              <g style="isolation: isolate">
                <path d="M184.21,49.64l-5.74.44a9.66,9.66,0,0,1-5.11-.89,9,9,0,0,1-3.64-3.35,9.56,9.56,0,0,1-1.36-5c0-.32,0-.64,0-.95h5.74a9.1,9.1,0,0,0,0,.91,8.83,8.83,0,0,0,1.36,4.82,8.59,8.59,0,0,0,3.64,3.21,10,10,0,0,0,5.11.84" fill="#8a5a47"/>
                <path d="M174.14,39.86H168.4a9.53,9.53,0,0,1,.59-2.57l5.73.11a8.82,8.82,0,0,0-.58,2.47" fill="#8e5c49"/>
                <path d="M174.72,37.39,169,37.28a9.19,9.19,0,0,1,.74-1.51,9.87,9.87,0,0,1,.8-1.09l5.73.22a10.29,10.29,0,0,0-.79,1.05,8.22,8.22,0,0,0-.75,1.44" fill="#915f4b"/>
                <path d="M176.26,34.9l-5.73-.22a9,9,0,0,1,2.93-2.26,9.91,9.91,0,0,1,4.09-1l5.73.37a10.08,10.08,0,0,0-4.09.91,9,9,0,0,0-2.93,2.16" fill="#95614d"/>
                <path d="M183.28,31.83l-5.73-.37a11.18,11.18,0,0,1,1.15,0l5.73.36c-.39,0-.77,0-1.15,0" fill="#915f4b"/>
              </g>
            </g>
          </g>
        </g>
        <g id="i" style="isolation: isolate">
          <polygon points="165.16 51.05 159.42 51.51 159.42 30.46 165.16 30.85 165.16 51.05" fill="#915e4b"/>
          <polygon points="165.16 30.85 159.42 30.46 165.51 30.87 171.25 31.25 165.16 30.85" fill="#905e4a"/>
          <polygon points="165.16 51.05 165.16 30.85 171.25 31.25 171.25 50.58 165.16 51.05" fill="#d98e72"/>
        </g>
        <g id="i-dot" style="isolation: isolate">
          <g style="isolation: isolate">
            <g clip-path="url(#clip-path-15)">
              <g style="isolation: isolate">
                <path d="M168.2,29.22l-5.74-.46a3.44,3.44,0,0,1-2.36-1.22l5.73.51a3.55,3.55,0,0,0,2.37,1.17" fill="#8a5a47"/>
              </g>
            </g>
          </g>
          <g style="isolation: isolate">
            <g clip-path="url(#clip-path-16)">
              <g style="isolation: isolate">
                <path d="M165.83,28.05l-5.73-.51a3.83,3.83,0,0,1-1-2.6c0-.12,0-.23,0-.34l5.73.62c0,.11,0,.21,0,.33a3.67,3.67,0,0,0,1,2.5" fill="#8a5a47"/>
                <path d="M164.87,25.22l-5.73-.62a3.67,3.67,0,0,1,.19-.91l5.74.66a3.45,3.45,0,0,0-.2.87" fill="#8e5c49"/>
                <path d="M165.07,24.35l-5.74-.66a2.93,2.93,0,0,1,.51-.87l5.73.7a2.71,2.71,0,0,0-.5.83" fill="#915f4b"/>
                <path d="M165.57,23.52l-5.73-.7a2.2,2.2,0,0,1,.26-.27,2.72,2.72,0,0,1,2-.75l5.74.74a2.82,2.82,0,0,0-2,.71,3.31,3.31,0,0,0-.26.27" fill="#95614d"/>
                <path d="M167.84,22.54l-5.74-.74c.12,0,.24,0,.36,0l5.74.74c-.12,0-.24,0-.36,0" fill="#915f4b"/>
              </g>
            </g>
          </g>
          <path d="M165.83,28.05a3.67,3.67,0,0,1-1-2.5,3,3,0,0,1,1-2.3,2.89,2.89,0,0,1,2.37-.68,3.74,3.74,0,0,1,2.37,1.25,3.5,3.5,0,0,1,1,2.42,2.83,2.83,0,0,1-1,2.21,3,3,0,0,1-2.37.77A3.55,3.55,0,0,1,165.83,28.05Z" fill="#d98e72"/>
        </g>
        <g id="s" style="isolation: isolate">
          <g style="isolation: isolate">
            <g clip-path="url(#clip-path-17)">
              <g style="isolation: isolate">
                <path d="M153.85,47.37l-5.74.28a6.88,6.88,0,0,0,.83-.08l5.74-.28c-.26,0-.54.06-.83.08" fill="#915f4b"/>
                <path d="M154.68,47.29l-5.74.28A4.41,4.41,0,0,0,150.5,47a2,2,0,0,0,.65-.57l5.74-.24a2.12,2.12,0,0,1-.65.55,4.62,4.62,0,0,1-1.56.51" fill="#95614d"/>
                <path d="M156.89,46.23l-5.74.24a1.54,1.54,0,0,0,.17-.34l5.73-.23a1.12,1.12,0,0,1-.16.33" fill="#915f4b"/>
                <path d="M157.05,45.9l-5.73.23a1.45,1.45,0,0,0,.06-.3l5.74-.22a1,1,0,0,1-.07.29" fill="#8e5c49"/>
                <path d="M157.12,45.61l-5.74.22v-.11a1.23,1.23,0,0,0-.48-1,3.14,3.14,0,0,0-1.54-.53l5.73-.15a3.16,3.16,0,0,1,1.54.5,1.17,1.17,0,0,1,.49,1v.11" fill="#8a5a47"/>
              </g>
            </g>
          </g>
          <g style="isolation: isolate">
            <g clip-path="url(#clip-path-18)">
              <g style="isolation: isolate">
                <path d="M159,36.81l-5.74-.13a15.1,15.1,0,0,0-3.08-1.62,9.57,9.57,0,0,0-2.93-.6l5.73.22a10,10,0,0,1,2.94.58A16.15,16.15,0,0,1,159,36.81" fill="#8a5a47"/>
              </g>
            </g>
          </g>
          <polygon points="155.09 44.03 149.36 44.18 145.41 43.58 151.14 43.46 155.09 44.03" fill="#865745"/>
          <g style="isolation: isolate">
            <g clip-path="url(#clip-path-19)">
              <g style="isolation: isolate">
                <path d="M151.14,43.46l-5.73.12a7.18,7.18,0,0,1-4.53-2.27,7.14,7.14,0,0,1-1.56-4.8q0-.4,0-.78l5.74.17c0,.24,0,.5,0,.75a6.69,6.69,0,0,0,1.55,4.62,7.35,7.35,0,0,0,4.53,2.19" fill="#8a5a47"/>
                <path d="M145.09,35.9l-5.74-.17a8.82,8.82,0,0,1,.35-1.93l5.74.24a7.67,7.67,0,0,0-.35,1.86" fill="#8e5c49"/>
                <path d="M145.44,34l-5.74-.24a6.3,6.3,0,0,1,.66-1.44c.06-.1.12-.2.19-.3l5.73.31c-.06.09-.13.18-.19.28a6.09,6.09,0,0,0-.65,1.39" fill="#915f4b"/>
                <path d="M146.28,32.37l-5.73-.31a6,6,0,0,1,2.75-2.17,9.12,9.12,0,0,1,3-.61l5.74.42a9.12,9.12,0,0,0-3,.58,6.07,6.07,0,0,0-2.76,2.09" fill="#95614d"/>
                <path d="M152.07,29.7l-5.74-.42a13.77,13.77,0,0,1,1.56,0l5.74.41a13.79,13.79,0,0,0-1.56,0" fill="#915f4b"/>
              </g>
            </g>
          </g>
          <polygon points="144.49 50.12 138.75 50.5 141.65 45.41 147.39 45.22 144.49 50.12" fill="#9a6550"/>
          <g style="isolation: isolate">
            <g clip-path="url(#clip-path-20)">
              <g style="isolation: isolate">
                <path d="M153.89,52.37l-5.73.48a16.55,16.55,0,0,1-5.23-.33,10.61,10.61,0,0,1-4.17-2l5.73-.38a10.69,10.69,0,0,0,4.17,1.94,17.18,17.18,0,0,0,5.23.31" fill="#8a5a47"/>
              </g>
            </g>
          </g>
          <path d="M153.63,29.73a15.83,15.83,0,0,1,4.32,1,15.58,15.58,0,0,1,4,2.13l-2.89,4A16.15,16.15,0,0,0,156,35.26a10,10,0,0,0-2.94-.58,3.44,3.44,0,0,0-1.88.37,1.28,1.28,0,0,0-.71,1.14,1.3,1.3,0,0,0,.53,1.09,4.13,4.13,0,0,0,1.8.64l4,.71a8,8,0,0,1,4.52,2.07,5.33,5.33,0,0,1,1.6,4,6.16,6.16,0,0,1-1.16,3.64A9.16,9.16,0,0,1,158.49,51a11.28,11.28,0,0,1-4.6,1.33,17.18,17.18,0,0,1-5.23-.31,10.69,10.69,0,0,1-4.17-1.94l2.9-4.9A14.85,14.85,0,0,0,150.81,47a8.44,8.44,0,0,0,3,.42,5.34,5.34,0,0,0,2.39-.59,1.47,1.47,0,0,0,.88-1.28,1.17,1.17,0,0,0-.49-1,3.16,3.16,0,0,0-1.54-.5l-4-.57a7.35,7.35,0,0,1-4.53-2.19,6.69,6.69,0,0,1-1.55-4.62,7.35,7.35,0,0,1,1-4A6,6,0,0,1,149,30.28,10.48,10.48,0,0,1,153.63,29.73Z" fill="#d98e72"/>
        </g>
        <g id="e2" style="isolation: isolate">
          <g style="isolation: isolate">
            <g clip-path="url(#clip-path-21)">
              <g style="isolation: isolate">
                <path d="M133.71,47.71,128,48a5.35,5.35,0,0,0,.7-.08l5.74-.26c-.23,0-.47.06-.71.07" fill="#915f4b"/>
                <path d="M134.42,47.64l-5.74.26a4.91,4.91,0,0,0,1.55-.53A5.47,5.47,0,0,0,132,45.88l5.73-.2a5.23,5.23,0,0,1-3.27,2" fill="#95614d"/>
              </g>
            </g>
          </g>
          <g style="isolation: isolate">
            <g clip-path="url(#clip-path-22)">
              <g style="isolation: isolate">
                <path d="M137,38.44l-5.74-.07a6.41,6.41,0,0,0-.92-2.16,4.85,4.85,0,0,0-1.45-1.44,3.36,3.36,0,0,0-1.8-.59l5.74.22a3.51,3.51,0,0,1,1.8.57,4.87,4.87,0,0,1,1.44,1.39,6.09,6.09,0,0,1,.93,2.08" fill="#8a5a47"/>
              </g>
            </g>
          </g>
          <polygon points="128.71 38.34 122.98 38.26 131.28 38.37 137.02 38.44 128.71 38.34" fill="#905e4a"/>
          <g style="isolation: isolate">
            <g clip-path="url(#clip-path-23)">
              <g style="isolation: isolate">
                <path d="M133.41,54.12l-5.74.51a8.28,8.28,0,0,1-5.5-1.37,11.3,11.3,0,0,1-3.89-4.82,17.46,17.46,0,0,1-1.43-7.22c0-.48,0-.94,0-1.4l5.74,0c0,.44,0,.89,0,1.35a16.4,16.4,0,0,0,1.43,7,11.13,11.13,0,0,0,3.88,4.65,8.56,8.56,0,0,0,5.51,1.3" fill="#8a5a47"/>
                <path d="M122.63,39.84l-5.74,0a19.3,19.3,0,0,1,.61-3.76l5.73.16a17.33,17.33,0,0,0-.6,3.62" fill="#8e5c49"/>
                <path d="M123.23,36.22l-5.73-.16a15.94,15.94,0,0,1,.72-2.08,17,17,0,0,1,.84-1.65l5.74.29A12.45,12.45,0,0,0,124,34.2a15.15,15.15,0,0,0-.73,2" fill="#915f4b"/>
                <path d="M124.8,32.62l-5.74-.29a10.84,10.84,0,0,1,2.9-3.21,7.66,7.66,0,0,1,4.15-1.45l5.73.45a7.81,7.81,0,0,0-4.14,1.4,10.28,10.28,0,0,0-2.9,3.1" fill="#95614d"/>
                <path d="M131.84,28.12l-5.73-.45a8.26,8.26,0,0,1,1.11,0l5.74.45a8.41,8.41,0,0,0-1.12,0" fill="#915f4b"/>
              </g>
            </g>
          </g>
          <path d="M143,41.77v1.78l-14.17.3a7.13,7.13,0,0,0,1.12,2.1,4.6,4.6,0,0,0,1.66,1.36,4.45,4.45,0,0,0,2.11.4,5.3,5.3,0,0,0,2.26-.59,5.41,5.41,0,0,0,1.72-1.44l4,4.13a14.4,14.4,0,0,1-3.85,3,11.57,11.57,0,0,1-4.45,1.26,8.56,8.56,0,0,1-5.51-1.3A11.13,11.13,0,0,1,124,48.17a16.4,16.4,0,0,1-1.43-7,17,17,0,0,1,1.37-7,11.09,11.09,0,0,1,3.74-4.68A7.93,7.93,0,0,1,133,28.14a9,9,0,0,1,5.18,2.13,12.48,12.48,0,0,1,3.56,4.82A16.51,16.51,0,0,1,143,41.77Zm-14.28-3.43,8.31.1a6.09,6.09,0,0,0-.93-2.08A4.87,4.87,0,0,0,134.65,35a3.51,3.51,0,0,0-1.8-.57,3.44,3.44,0,0,0-1.84.41,3.89,3.89,0,0,0-1.41,1.33,6.71,6.71,0,0,0-.89,2.2" fill="#d98e72"/>
        </g>
        <g id="d" style="isolation: isolate">
          <g style="isolation: isolate">
            <g clip-path="url(#clip-path-24)">
              <g style="isolation: isolate">
                <path d="M106.32,47.51l-5.74.23a5.16,5.16,0,0,0,.79-.09l5.73-.23a5,5,0,0,1-.78.09" fill="#915f4b"/>
                <path d="M107.1,47.42l-5.73.23a5.54,5.54,0,0,0,2.09-.88,8.5,8.5,0,0,0,2.35-2.42c.19-.3.37-.6.54-.91l5.73-.1a7.15,7.15,0,0,1-.54.88,8.34,8.34,0,0,1-2.35,2.35,5.34,5.34,0,0,1-2.09.85" fill="#95614d"/>
                <path d="M112.08,43.34l-5.73.1a13.44,13.44,0,0,0,1-2.6h5.73a12,12,0,0,1-1,2.51" fill="#915f4b"/>
              </g>
            </g>
          </g>
          <g style="isolation: isolate">
            <g clip-path="url(#clip-path-25)">
              <g style="isolation: isolate">
                <path d="M113.12,40.83h-5.73l.1-.4h5.74c0,.13-.07.25-.11.38" fill="#915f4b"/>
                <path d="M113.23,40.45h-5.74a14.65,14.65,0,0,0,.43-2.79l5.73.09a14.61,14.61,0,0,1-.42,2.71" fill="#8e5c49"/>
                <path d="M113.65,37.74l-5.73-.09c0-.34,0-.69,0-1a16.53,16.53,0,0,0-.56-4.36,13,13,0,0,0-1.58-3.64A9.44,9.44,0,0,0,103.46,26a5.62,5.62,0,0,0-2.88-1.15l5.74.51a5.67,5.67,0,0,1,2.87,1.11,9.25,9.25,0,0,1,2.35,2.5,12.18,12.18,0,0,1,1.58,3.52,15.1,15.1,0,0,1,.56,4.22c0,.33,0,.67,0,1" fill="#8a5a47"/>
              </g>
            </g>
          </g>
          <polygon points="102.26 47.67 96.53 47.9 100.58 47.74 106.32 47.51 102.26 47.67" fill="#905e4a"/>
          <polygon points="95.8 15.46 90.06 14.64 100.74 16.15 106.47 16.95 95.8 15.46" fill="#905e4a"/>
          <polygon points="95.8 56.94 90.06 57.47 90.06 14.64 95.8 15.46 95.8 56.94" fill="#915e4b"/>
          <path d="M119.3,29.73a23.65,23.65,0,0,1,1.08,7.17,22.46,22.46,0,0,1-1.08,7,20.89,20.89,0,0,1-3,5.87,17.23,17.23,0,0,1-4.42,4.28A11.56,11.56,0,0,1,106.47,56l-10.67,1V15.46L106.47,17a12.2,12.2,0,0,1,5.45,2.2,17.86,17.86,0,0,1,4.42,4.5A22.45,22.45,0,0,1,119.3,29.73Zm-6.18,11.1a14.12,14.12,0,0,0,.56-4.08,15.1,15.1,0,0,0-.56-4.22A12.18,12.18,0,0,0,111.54,29a9.25,9.25,0,0,0-2.35-2.5,5.67,5.67,0,0,0-2.87-1.11L102.26,25V47.67l4.06-.16a5.45,5.45,0,0,0,2.87-.94,8.34,8.34,0,0,0,2.35-2.35,11.62,11.62,0,0,0,1.58-3.39" fill="#d98e72"/>
        </g>
      </g>
    </g>
  </g>
</svg>
