<svg xmlns="http://www.w3.org/2000/svg" viewBox="0 0 616.62 344.09">
  <g id="Layer_2" data-name="Layer 2">
    <g id="Layer_2-2" data-name="Layer 2">
      <g>
        <polygon points="615.82 344.09 0 344.09 0 0 0 0 615.82 344.09" fill="#e59678" opacity="0.5"/>
        <polygon points="616.62 344.09 0.8 344.09 81.34 0 81.34 0 616.62 344.09" fill="#e59678" opacity="0.5"/>
        <polygon points="616.62 344.09 0 344.09 169.46 0 169.46 0 616.62 344.09" fill="#e59678" opacity="0.5"/>
        <polygon points="615.82 344.09 0 344.09 242.59 0 242.59 0 615.82 344.09" fill="#e59678" opacity="0.5"/>
        <polygon points="616.62 344.09 0.8 344.09 331.25 0 331.25 0 616.62 344.09" fill="#e59678" opacity="0.5"/>
        <polygon points="616.62 344.09 0.8 344.09 413.5 0 413.5 0 616.62 344.09" fill="#e59678" opacity="0.5"/>
        <polygon points="615.82 344.09 0 344.09 501.99 0 501.99 0 615.82 344.09" fill="#e59678" opacity="0.5"/>
        <polygon points="616.26 344.09 0.45 344.09 616.26 0 616.26 0 616.26 344.09" fill="#e59678" opacity="0.5"/>
      </g>
    </g>
  </g>
</svg>
