<svg xmlns="http://www.w3.org/2000/svg" viewBox="0 0 344.54 344.09">
  <g id="Layer_2" data-name="Layer 2">
    <g id="Layer_2-2" data-name="Layer 2">
      <g>
        <polygon points="344.09 344.09 0 344.09 0 0 0 0 344.09 344.09" fill="#e59678" opacity="0.5"/>
        <polygon points="344.54 344.09 0.45 344.09 45.45 0 45.45 0 344.54 344.09" fill="#e59678" opacity="0.5"/>
        <polygon points="344.54 344.09 0 344.09 94.69 0 94.69 0 344.54 344.09" fill="#e59678" opacity="0.5"/>
        <polygon points="344.09 344.09 0 344.09 135.55 0 135.55 0 344.09 344.09" fill="#e59678" opacity="0.5"/>
        <polygon points="344.54 344.09 0.45 344.09 185.09 0 185.09 0 344.54 344.09" fill="#e59678" opacity="0.5"/>
        <polygon points="344.54 344.09 0.45 344.09 231.04 0 231.04 0 344.54 344.09" fill="#e59678" opacity="0.5"/>
        <polygon points="344.09 344.09 0 344.09 280.49 0 280.49 0 344.09 344.09" fill="#e59678" opacity="0.5"/>
        <polygon points="344.34 344.09 0.25 344.09 344.34 0 344.34 0 344.34 344.09" fill="#e59678" opacity="0.5"/>
      </g>
    </g>
  </g>
</svg>
