<svg xmlns="http://www.w3.org/2000/svg" viewBox="0 0 100 35.94">
  <g id="Layer_2" data-name="Layer 2">
    <g id="background">
      <g>
        <path d="M17,27.82,16,30a1.29,1.29,0,0,0,.63,1.63,1,1,0,0,0,.71.14,1.06,1.06,0,0,0,.63-.36c.47-.52.79-1.31.36-1.86Z" fill="#e59678"/>
        <path d="M27,29.16,26,30.93a1.17,1.17,0,0,0,.31,1.54,1,1,0,0,0,.61.23,1,1,0,0,0,.61-.23,1.17,1.17,0,0,0,.31-1.54Z" fill="#e59678"/>
        <path d="M11,32.4l-.92,1.77a1.17,1.17,0,0,0,.31,1.54,1,1,0,0,0,.61.23,1,1,0,0,0,.61-.23A1.17,1.17,0,0,0,12,34.17Z" fill="#e59678"/>
        <path d="M43.18,29.48l-1.26,2.35a1.51,1.51,0,0,0,.42,2,1.34,1.34,0,0,0,1.69,0,1.51,1.51,0,0,0,.42-2Z" fill="#e59678"/>
        <path d="M94,28l-1.27,2.35a1.51,1.51,0,0,0,.42,2,1.4,1.4,0,0,0,.85.3,1.37,1.37,0,0,0,.84-.3,1.5,1.5,0,0,0,.42-2Z" fill="#e59678"/>
        <path d="M50.79,26.26,49.87,28a1.17,1.17,0,0,0,.31,1.54,1,1,0,0,0,.61.23,1,1,0,0,0,.61-.23A1.17,1.17,0,0,0,51.71,28Z" fill="#e59678"/>
        <path d="M66.63,29.16l-.92,1.77a1.16,1.16,0,0,0,.3,1.54.94.94,0,0,0,1.23,0,1.17,1.17,0,0,0,.31-1.54Z" fill="#e59678"/>
        <path d="M74.24,25.9l-.92,1.77a1.16,1.16,0,0,0,.3,1.54.94.94,0,0,0,1.23,0,1.17,1.17,0,0,0,.31-1.54Z" fill="#e59678"/>
        <path d="M82.44,25.41l-.92,1.77a1.17,1.17,0,0,0,.31,1.54,1,1,0,0,0,.61.23,1,1,0,0,0,.61-.23,1.17,1.17,0,0,0,.31-1.54Z" fill="#e59678"/>
        <path d="M5.46,26.26,4.54,28a1.17,1.17,0,0,0,.31,1.54,1,1,0,0,0,.61.23,1,1,0,0,0,.61-.23A1.17,1.17,0,0,0,6.38,28Z" fill="#e59678"/>
        <path d="M61.65,26.26,60.73,28A1.17,1.17,0,0,0,61,29.57a1,1,0,0,0,.61.23,1,1,0,0,0,.61-.23A1.17,1.17,0,0,0,62.57,28Z" fill="#e59678"/>
        <path d="M100,0V29.82a2.38,2.38,0,0,1-1.57-.66,3.63,3.63,0,0,1-.78-4.43l2.32-5a4.17,4.17,0,0,0-8-1.22l1.75,3.35a2.34,2.34,0,0,1-.62,3.08,1.93,1.93,0,0,1-1.22.46,2,2,0,0,1-1.23-.46A2.33,2.33,0,0,1,90,21.83l1.62-3.11a6.24,6.24,0,0,0-12.12-.44L81,21.19a2.33,2.33,0,0,1-.61,3.08,1.86,1.86,0,0,1-2.45,0,2.33,2.33,0,0,1-.61-3.08l1.5-2.9a4.53,4.53,0,0,0-8.08,0l1.37,4.45a3.3,3.3,0,0,1-1.49,4.17,2.39,2.39,0,0,1-3-.79c-1-1.28-1.47-3.18-.37-4.35l3.25-3.6a7,7,0,0,0-14-1.08L59.06,21a3,3,0,0,1-.39,4,2.58,2.58,0,0,1-1.5.74,2.61,2.61,0,0,1-1.62-.43,3,3,0,0,1-1.17-3.85l1.67-4.19A5.35,5.35,0,0,0,46,18.79l1.75,3.37a2.34,2.34,0,0,1-.62,3.08,1.86,1.86,0,0,1-2.45,0A2.33,2.33,0,0,1,44,22.16L45.66,19A4.55,4.55,0,0,0,37,18.26l2.68,5.16a3.66,3.66,0,0,1-1,4.83,2.9,2.9,0,0,1-3.85,0,3.66,3.66,0,0,1-1-4.83l2.5-4.82a6.24,6.24,0,0,0-11.59-1l1.46,6.51c.25,1.5.24,2.38-.84,3.11a2.11,2.11,0,0,1-1.32.39,2,2,0,0,1-1.25-.55c-1-.86-.88-1.9-.45-3.2l2.17-6a7,7,0,0,0-13.91-.27l2.8,3.72c1,1.21.24,3-.79,4.09a2.43,2.43,0,0,1-1.39.81,2.44,2.44,0,0,1-1.58-.31,2.86,2.86,0,0,1-1.38-3.61l2-4.46A5.36,5.36,0,0,0,0,19.69l2.33,5a3.64,3.64,0,0,1-.79,4.43A2.36,2.36,0,0,1,0,29.82V0Z" fill="#e59678"/>
      </g>
    </g>
  </g>
</svg>
